<?xml version="1.0" standalone="no"?><!DOCTYPE svg PUBLIC "-//W3C//DTD SVG 1.1//EN" "http://www.w3.org/Graphics/SVG/1.1/DTD/svg11.dtd"><svg class="icon" height="512" viewBox="0 0 1024 1024" version="1.1" xmlns="http://www.w3.org/2000/svg"><path d="M515.6288 11.7312c-262.3872 0-475.8528 190.24-475.8528 424.0704 0 112.4608 48.6464 217.8368 137.2224 297.7472-4.3008 98.2144-82.4064 155.5712-120.4928 183.5456-7.3664 5.4016-13.3696 9.8624-17.4016 13.3696a19.2128 19.2128 0 0 0 7.616 33.024c20.3264 5.472 42.5984 8.2496 66.2336 8.2496 108.3008 0 236.8768-59.2896 312.0192-119.7184a534.9632 534.9632 0 0 0 90.656 7.8592c262.3744 0 475.84-190.24 475.84-424.0704S778.0032 11.7312 515.6288 11.7312z m0 809.7344c-30.528 0-61.6192-2.9632-92.4096-8.7936a19.04 19.04 0 0 0-15.9168 4.1792c-70.0032 59.0272-205.024 121.76-308.0192 116.1024 45.7472-35.68 116.2688-102.336 116.2688-207.8976a19.264 19.264 0 0 0-6.6176-14.5152c-84.3456-73.1776-130.7968-170.752-130.7968-274.7392 0-212.6656 196.2624-385.6704 437.4912-385.6704s437.472 173.0048 437.472 385.6704-196.2368 385.664-437.472 385.664z m-30.944-369.0688c0 19.5648-2.496 39.0336-7.3792 58.1568-4.8896 19.1424-12.2112 36.9536-22.0032 53.376a172.3136 172.3136 0 0 1-36.704 43.488c-14.6496 12.4032-32.256 21.312-52.7168 26.6304v-57.4144a62.24 62.24 0 0 0 29.3824-19.3472c7.9744-9.3504 14.6496-20.2176 20.0384-32.7168a172.7232 172.7232 0 0 0 11.3024-38.048c2.2272-12.9408 2.8736-24.7872 2.0096-35.4432h-56.0448V309.408h112.1216v142.9888z m93.408-142.9888h112.0768v142.9888h-0.0192c0 19.5648-2.432 39.0336-7.328 58.1568-4.8896 19.1424-12.2176 36.9536-22.0032 53.376a172.1792 172.1792 0 0 1-36.704 43.488c-14.7136 12.4032-32.256 21.312-52.7168 26.6304v-57.4144a62.432 62.432 0 0 0 29.3824-19.3472c7.9744-9.3504 14.6496-20.2176 19.9808-32.7168a169.504 169.504 0 0 0 11.3536-38.048c2.2272-12.9408 2.8736-24.7872 2.0096-35.4432h-56.0384V309.408z" /></svg>